<svg width="19" height="20" viewBox="0 0 19 20" fill="none" xmlns="http://www.w3.org/2000/svg">
<path d="M11.89 1.45H6.11001C5.71001 1.45 5.39001 1.13 5.39001 0.73C5.39001 0.33 5.71001 0 6.11001 0H11.89C12.29 0 12.61 0.32 12.61 0.72C12.61 1.12 12.29 1.45 11.89 1.45Z" fill="#14142B"/>
<path d="M16.97 13H14.03C12.76 13 12 13.76 12 15.03V17.97C12 19.24 12.76 20 14.03 20H16.97C18.24 20 19 19.24 19 17.97V15.03C19 13.76 18.24 13 16.97 13ZM16.69 17.46L15.51 18.14C15.27 18.28 15.03 18.35 14.81 18.35C14.64 18.35 14.49 18.31 14.35 18.23C14.03 18.04 13.85 17.67 13.85 17.18V15.82C13.85 15.33 14.03 14.96 14.35 14.77C14.67 14.58 15.08 14.62 15.51 14.86L16.69 15.54C17.11 15.79 17.35 16.13 17.35 16.5C17.35 16.87 17.12 17.21 16.69 17.46Z" fill="#14142B"/>
<path d="M11 17.9699V15.0299C11 13.2199 12.22 11.9999 14.03 11.9999H16.97C17.2 11.9999 17.42 12.0199 17.63 12.0599C17.65 11.8199 17.67 11.5799 17.67 11.3299C17.67 6.5399 13.78 2.6499 8.99999 2.6499C4.21999 2.6499 0.329987 6.5399 0.329987 11.3299C0.329987 16.1099 4.21999 19.9999 8.99999 19.9999C9.84999 19.9999 10.66 19.8599 11.44 19.6399C11.16 19.1699 11 18.6099 11 17.9699ZM9.74999 10.9999C9.74999 11.4099 9.40999 11.7499 8.99999 11.7499C8.58999 11.7499 8.24999 11.4099 8.24999 10.9999V5.9999C8.24999 5.5899 8.58999 5.2499 8.99999 5.2499C9.40999 5.2499 9.74999 5.5899 9.74999 5.9999V10.9999Z" fill="#14142B"/>
</svg>
