<svg width="41" height="40" viewBox="0 0 41 40" fill="none" xmlns="http://www.w3.org/2000/svg">
<path d="M20.9399 0C9.8999 0 0.939896 8.96 0.939896 20C0.939896 31.04 9.8999 40 20.9399 40C31.9799 40 40.9399 31.04 40.9399 20C40.9399 8.96 31.9999 0 20.9399 0ZM28.4399 20.7L20.9999 29.16L20.1199 30.16C18.8999 31.54 17.8999 31.18 17.8999 29.32V21.4H14.4999C12.9599 21.4 12.5399 20.46 13.5599 19.3L20.9999 10.84L21.8799 9.84C23.0999 8.46 24.0999 8.82 24.0999 10.68V18.6H27.4999C29.0399 18.6 29.4599 19.54 28.4399 20.7Z" fill="white"/>
</svg>
