<svg width="44" height="41" viewBox="0 0 44 41" fill="none" xmlns="http://www.w3.org/2000/svg">
<path d="M42 37.4999H40V14.9599C40 13.7199 39.44 12.5599 38.46 11.7999L24.46 0.919941C23.02 -0.220059 20.98 -0.220059 19.54 0.919941L5.54 11.7999C4.56 12.5599 4 13.7199 4 14.9399L3.9 37.4999H2C1.18 37.4999 0.5 38.1599 0.5 38.9999C0.5 39.8199 1.18 40.4999 2 40.4999H42C42.82 40.4999 43.5 39.8199 43.5 38.9999C43.5 38.1599 42.82 37.4999 42 37.4999ZM19 8.49994H25C25.82 8.49994 26.5 9.17994 26.5 9.99994C26.5 10.8199 25.82 11.4999 25 11.4999H19C18.18 11.4999 17.5 10.8199 17.5 9.99994C17.5 9.17994 18.18 8.49994 19 8.49994ZM32 37.4999H12V19.9999C12 18.3399 13.34 16.9999 15 16.9999H29C30.66 16.9999 32 18.3399 32 19.9999V37.4999Z" fill="white"/>
</svg>
