<svg width="40" height="40" viewBox="0 0 40 40" fill="none" xmlns="http://www.w3.org/2000/svg">
<path d="M29.3 7.44H10.7C4.8 7.44 0 12.24 0 18.14V29.3C0 35.2 4.8 40 10.7 40H29.3C35.2 40 40 35.2 40 29.3V18.14C40 12.24 35.2 7.44 29.3 7.44ZM25 20.04C25 18.94 25.9 18.04 27 18.04C28.1 18.04 29 18.94 29 20.04C29 21.14 28.1 22.06 27 22.06C25.9 22.06 25 21.18 25 20.08V20.04ZM16.26 28.14C15.96 28.44 15.58 28.58 15.2 28.58C14.82 28.58 14.44 28.44 14.14 28.14L12.08 26.08L10.1 28.06C9.8 28.36 9.42 28.5 9.04 28.5C8.66 28.5 8.28 28.36 7.98 28.06C7.4 27.48 7.4 26.52 7.98 25.94L9.96 23.96L8.04 22.04C7.46 21.46 7.46 20.5 8.04 19.92C8.62 19.34 9.58 19.34 10.16 19.92L12.08 21.84L14.06 19.86C14.64 19.28 15.6 19.28 16.18 19.86C16.76 20.44 16.76 21.4 16.18 21.98L14.2 23.96L16.26 26.02C16.84 26.6 16.84 27.56 16.26 28.14ZM23.08 26C21.98 26 21.06 25.1 21.06 24C21.06 22.9 21.94 22 23.04 22H23.08C24.18 22 25.08 22.9 25.08 24C25.08 25.1 24.2 26 23.08 26ZM27 29.94C25.9 29.94 25 29.06 25 27.96V27.92C25 26.82 25.9 25.92 27 25.92C28.1 25.92 29 26.82 29 27.92C29 29.02 28.12 29.94 27 29.94ZM30.96 26C29.86 26 28.94 25.1 28.94 24C28.94 22.9 29.82 22 30.92 22H30.96C32.06 22 32.96 22.9 32.96 24C32.96 25.1 32.08 26 30.96 26Z" fill="white"/>
<path d="M23.28 1.42L23.26 3.3C23.24 5.06 21.78 6.52 20 6.52C19.7 6.52 19.52 6.72 19.52 6.98C19.52 7.24 19.72 7.44 19.98 7.44H16.76C16.74 7.3 16.72 7.14 16.72 6.98C16.72 5.18 18.18 3.72 19.96 3.72C20.26 3.72 20.46 3.52 20.46 3.26L20.48 1.38C20.5 0.62 21.12 0 21.88 0H21.9C22.68 0 23.28 0.64 23.28 1.42Z" fill="white"/>
</svg>
