<svg width="14" height="12" viewBox="0 0 14 12" fill="none" xmlns="http://www.w3.org/2000/svg">
<path d="M13.1667 4.1C11.6267 1.68 9.37337 0.286667 7.00004 0.286667C5.81337 0.286667 4.66004 0.633334 3.60671 1.28C2.55337 1.93333 1.60671 2.88667 0.833374 4.1C0.166707 5.14667 0.166707 6.84667 0.833374 7.89333C2.37337 10.32 4.62671 11.7067 7.00004 11.7067C8.18671 11.7067 9.34004 11.36 10.3934 10.7133C11.4467 10.06 12.3934 9.10667 13.1667 7.89333C13.8334 6.85333 13.8334 5.14667 13.1667 4.1ZM7.00004 8.69333C5.50671 8.69333 4.30671 7.48667 4.30671 6C4.30671 4.51333 5.50671 3.30667 7.00004 3.30667C8.49337 3.30667 9.69337 4.51333 9.69337 6C9.69337 7.48667 8.49337 8.69333 7.00004 8.69333Z" fill="#008A00"/>
<path d="M6.99998 4.09333C5.95331 4.09333 5.09998 4.94667 5.09998 6C5.09998 7.04667 5.95331 7.9 6.99998 7.9C8.04664 7.9 8.90664 7.04667 8.90664 6C8.90664 4.95333 8.04664 4.09333 6.99998 4.09333Z" fill="#008A00"/>
</svg>

