<svg width="20" height="20" viewBox="0 0 20 20" fill="none" xmlns="http://www.w3.org/2000/svg">
<path d="M19.3 5.58018H13.72C13.33 5.58018 13.02 5.27018 13.02 4.88018C13.02 4.49018 13.33 4.18018 13.72 4.18018H19.3C19.69 4.18018 20 4.49018 20 4.88018C20 5.27018 19.69 5.58018 19.3 5.58018Z" fill="#A0A3BD"/>
<path d="M4.42 5.58018H0.7C0.31 5.58018 0 5.27018 0 4.88018C0 4.49018 0.31 4.18018 0.7 4.18018H4.42C4.81 4.18018 5.12 4.49018 5.12 4.88018C5.12 5.27018 4.8 5.58018 4.42 5.58018Z" fill="#A0A3BD"/>
<path d="M8.14 8.83018C10.3215 8.83018 12.09 7.0617 12.09 4.88018C12.09 2.69865 10.3215 0.930176 8.14 0.930176C5.95848 0.930176 4.19 2.69865 4.19 4.88018C4.19 7.0617 5.95848 8.83018 8.14 8.83018Z" fill="#A0A3BD"/>
<path d="M19.3 15.8102H15.58C15.19 15.8102 14.88 15.5002 14.88 15.1102C14.88 14.7202 15.19 14.4102 15.58 14.4102H19.3C19.69 14.4102 20 14.7202 20 15.1102C20 15.5002 19.69 15.8102 19.3 15.8102Z" fill="#A0A3BD"/>
<path d="M6.28 15.8102H0.7C0.31 15.8102 0 15.5002 0 15.1102C0 14.7202 0.31 14.4102 0.7 14.4102H6.28C6.67 14.4102 6.98 14.7202 6.98 15.1102C6.98 15.5002 6.66 15.8102 6.28 15.8102Z" fill="#A0A3BD"/>
<path d="M11.86 19.0699C14.0415 19.0699 15.81 17.3014 15.81 15.1199C15.81 12.9384 14.0415 11.1699 11.86 11.1699C9.67848 11.1699 7.91 12.9384 7.91 15.1199C7.91 17.3014 9.67848 19.0699 11.86 19.0699Z" fill="#A0A3BD"/>
</svg>
