<svg width="14" height="14" viewBox="0 0 14 14" fill="none" xmlns="http://www.w3.org/2000/svg">
<path d="M7 0.333333C3.32667 0.333333 0.333336 3.32667 0.333336 7C0.333336 10.6733 3.32667 13.6667 7 13.6667C10.6733 13.6667 13.6667 10.6733 13.6667 7C13.6667 3.32667 10.6733 0.333333 7 0.333333ZM6.5 4.33333C6.5 4.06 6.72667 3.83333 7 3.83333C7.27334 3.83333 7.5 4.06 7.5 4.33333V7.66667C7.5 7.94 7.27334 8.16667 7 8.16667C6.72667 8.16667 6.5 7.94 6.5 7.66667V4.33333ZM7.61334 9.92C7.58 10.0067 7.53334 10.0733 7.47334 10.14C7.40667 10.2 7.33334 10.2467 7.25334 10.28C7.17334 10.3133 7.08667 10.3333 7 10.3333C6.91334 10.3333 6.82667 10.3133 6.74667 10.28C6.66667 10.2467 6.59334 10.2 6.52667 10.14C6.46667 10.0733 6.42 10.0067 6.38667 9.92C6.35334 9.84 6.33334 9.75333 6.33334 9.66667C6.33334 9.58 6.35334 9.49333 6.38667 9.41333C6.42 9.33333 6.46667 9.26 6.52667 9.19333C6.59334 9.13333 6.66667 9.08667 6.74667 9.05333C6.90667 8.98667 7.09334 8.98667 7.25334 9.05333C7.33334 9.08667 7.40667 9.13333 7.47334 9.19333C7.53334 9.26 7.58 9.33333 7.61334 9.41333C7.64667 9.49333 7.66667 9.58 7.66667 9.66667C7.66667 9.75333 7.64667 9.84 7.61334 9.92Z" fill="#FC7B39"/>
</svg>
