<svg width="40" height="40" viewBox="0 0 40 40" fill="none" xmlns="http://www.w3.org/2000/svg">
<path d="M20 40C31.02 40 40 31.02 40 20C40 8.98 31.02 -7.85056e-07 20 -1.74846e-06C8.98 -2.71185e-06 2.71185e-06 8.98 1.74846e-06 20C7.85056e-07 31.02 8.98 40 20 40ZM21.5 28C21.5 28.82 20.82 29.5 20 29.5C19.18 29.5 18.5 28.82 18.5 28L18.5 18C18.5 17.18 19.18 16.5 20 16.5C20.82 16.5 21.5 17.18 21.5 18L21.5 28ZM18.16 11.24C18.26 10.98 18.4 10.78 18.58 10.58C18.78 10.4 19 10.26 19.24 10.16C19.48 10.06 19.74 10 20 10C20.26 10 20.52 10.06 20.76 10.16C21 10.26 21.22 10.4 21.42 10.58C21.6 10.78 21.74 10.98 21.84 11.24C21.94 11.48 22 11.74 22 12C22 12.26 21.94 12.52 21.84 12.76C21.74 13 21.6 13.22 21.42 13.42C21.22 13.6 21 13.74 20.76 13.84C20.28 14.04 19.72 14.04 19.24 13.84C19 13.74 18.78 13.6 18.58 13.42C18.4 13.22 18.26 13 18.16 12.76C18.06 12.52 18 12.26 18 12C18 11.74 18.06 11.48 18.16 11.24Z" fill="white"/>
</svg>
