<svg width="17" height="22" viewBox="0 0 17 22" fill="none" xmlns="http://www.w3.org/2000/svg">
<path d="M15.3399 14.49L14.3399 12.83C14.1299 12.46 13.9399 11.76 13.9399 11.35V8.82C13.9399 6.47 12.5599 4.44 10.5699 3.49C10.0499 2.57 9.08994 2 7.98994 2C6.89994 2 5.91994 2.59 5.39994 3.52C3.44994 4.49 2.09994 6.5 2.09994 8.82V11.35C2.09994 11.76 1.90994 12.46 1.69994 12.82L0.689943 14.49C0.289943 15.16 0.199943 15.9 0.449943 16.58C0.689943 17.25 1.25994 17.77 1.99994 18.02C3.93994 18.68 5.97994 19 8.01994 19C10.0599 19 12.0999 18.68 14.0399 18.03C14.7399 17.8 15.2799 17.27 15.5399 16.58C15.7999 15.89 15.7299 15.13 15.3399 14.49Z" fill="#14142B"/>
<circle cx="13" cy="4" r="3.5" fill="#FC7B39" stroke="white"/>
<path d="M10.8301 20.01C10.4101 21.17 9.30005 22 8.00005 22C7.21005 22 6.43005 21.68 5.88005 21.11C5.56005 20.81 5.32005 20.41 5.18005 20C5.31005 20.02 5.44005 20.03 5.58005 20.05C5.81005 20.08 6.05005 20.11 6.29005 20.13C6.86005 20.18 7.44005 20.21 8.02005 20.21C8.59005 20.21 9.16005 20.18 9.72005 20.13C9.93005 20.11 10.1401 20.1 10.3401 20.07C10.5001 20.05 10.6601 20.03 10.8301 20.01Z" fill="#14142B"/>
</svg>
