<svg width="44" height="40" viewBox="0 0 44 40" fill="none" xmlns="http://www.w3.org/2000/svg">
<path d="M17.64 22.5599H23.82V36.9599C23.82 39.0799 26.46 40.0799 27.86 38.4799L43 21.2799C44.32 19.7799 43.26 17.4399 41.26 17.4399H35.08V3.03994C35.08 0.919939 32.44 -0.0800614 31.04 1.51994L15.9 18.7199C14.6 20.2199 15.66 22.5599 17.64 22.5599Z" fill="white"/>
<path d="M16 5.5H2C1.18 5.5 0.5 4.82 0.5 4C0.5 3.18 1.18 2.5 2 2.5H16C16.82 2.5 17.5 3.18 17.5 4C17.5 4.82 16.82 5.5 16 5.5Z" fill="white"/>
<path d="M14 37.5H2C1.18 37.5 0.5 36.82 0.5 36C0.5 35.18 1.18 34.5 2 34.5H14C14.82 34.5 15.5 35.18 15.5 36C15.5 36.82 14.82 37.5 14 37.5Z" fill="white"/>
<path d="M8 21.5H2C1.18 21.5 0.5 20.82 0.5 20C0.5 19.18 1.18 18.5 2 18.5H8C8.82 18.5 9.5 19.18 9.5 20C9.5 20.82 8.82 21.5 8 21.5Z" fill="white"/>
</svg>
