<svg width="18" height="22" viewBox="0 0 18 22" fill="none" xmlns="http://www.w3.org/2000/svg">
<path d="M17 7.25V17C17 20 15.21 21 13 21H5C2.79 21 1 20 1 17V7.25C1 4 2.79 3.25 5 3.25C5 3.87 5.24997 4.43 5.65997 4.84C6.06997 5.25 6.63 5.5 7.25 5.5H10.75C11.99 5.5 13 4.49 13 3.25C15.21 3.25 17 4 17 7.25Z" stroke="#A0A3BD" stroke-width="1.5" stroke-linecap="round" stroke-linejoin="round"/>
<path d="M13 3.25C13 4.49 11.99 5.5 10.75 5.5H7.25C6.63 5.5 6.06997 5.25 5.65997 4.84C5.24997 4.43 5 3.87 5 3.25C5 2.01 6.01 1 7.25 1H10.75C11.37 1 11.93 1.25 12.34 1.66C12.75 2.07 13 2.63 13 3.25Z" stroke="#A0A3BD" stroke-width="1.5" stroke-linecap="round" stroke-linejoin="round"/>
<path d="M5 12H9" stroke="#A0A3BD" stroke-width="1.5" stroke-linecap="round" stroke-linejoin="round"/>
<path d="M5 16H13" stroke="#A0A3BD" stroke-width="1.5" stroke-linecap="round" stroke-linejoin="round"/>
</svg>
