<svg width="16" height="20" viewBox="0 0 16 20" fill="none" xmlns="http://www.w3.org/2000/svg">
<path d="M12 2.25C12 3.49 10.99 4.5 9.75 4.5H6.25C5.63 4.5 5.07 4.25 4.66 3.84C4.25 3.43 4 2.87 4 2.25C4 1.01 5.01 0 6.25 0H9.75C10.37 0 10.93 0.25 11.34 0.66C11.75 1.07 12 1.63 12 2.25Z" fill="#14142B"/>
<path d="M14.83 3.03021C14.6 2.84021 14.34 2.69021 14.06 2.58021C13.77 2.47021 13.48 2.70021 13.42 3.00021C13.08 4.71021 11.57 6.00021 9.75 6.00021H6.25C5.25 6.00021 4.31 5.61021 3.6 4.90021C3.08 4.38021 2.72 3.72021 2.58 3.01021C2.52 2.71021 2.22 2.47021 1.93 2.59021C0.77 3.06021 0 4.12021 0 6.25021V16.0002C0 19.0002 1.79 20.0002 4 20.0002H12C14.21 20.0002 16 19.0002 16 16.0002V6.25021C16 4.62021 15.55 3.62021 14.83 3.03021ZM4 10.2502H8C8.41 10.2502 8.75 10.5902 8.75 11.0002C8.75 11.4102 8.41 11.7502 8 11.7502H4C3.59 11.7502 3.25 11.4102 3.25 11.0002C3.25 10.5902 3.59 10.2502 4 10.2502ZM12 15.7502H4C3.59 15.7502 3.25 15.4102 3.25 15.0002C3.25 14.5902 3.59 14.2502 4 14.2502H12C12.41 14.2502 12.75 14.5902 12.75 15.0002C12.75 15.4102 12.41 15.7502 12 15.7502Z" fill="#14142B"/>
</svg>
