<svg width="40" height="40" viewBox="0 0 40 40" fill="none" xmlns="http://www.w3.org/2000/svg">
<path d="M21.4 29.76H22.8C25.1 29.76 26.98 27.88 26.98 25.58V24.18H21.4V29.76Z" fill="white"/>
<path d="M13.02 25.58C13.02 27.88 14.9 29.76 17.2 29.76H18.6V24.18H13.02V25.58Z" fill="white"/>
<path d="M13.02 20V21.4H18.6V15.82H17.2C14.9 15.82 13.02 17.7 13.02 20Z" fill="white"/>
<path d="M36.06 9.64L24.56 1.58C21.42 -0.620003 16.62 -0.500002 13.6 1.84L3.58 9.66C1.56 11.22 0 14.42 0 16.94V30.74C0 35.84 4.14 40 9.22 40H30.76C35.84 40 39.98 35.86 39.98 30.76V17.2C40 14.5 38.26 11.18 36.06 9.64ZM29.76 25.58C29.76 29.42 26.62 32.56 22.78 32.56H17.2C13.36 32.56 10.22 29.44 10.22 25.58V20C10.22 16.16 13.36 13.02 17.2 13.02H22.78C26.62 13.02 29.76 16.14 29.76 20V25.58V25.58Z" fill="white"/>
<path d="M22.8 15.82H21.4V21.4H26.98V20C26.98 17.7 25.1 15.82 22.8 15.82Z" fill="white"/>
</svg>
