<svg width="20" height="20" viewBox="0 0 20 20" fill="none" xmlns="http://www.w3.org/2000/svg">
<path d="M10.7 14.88H11.4C12.55 14.88 13.49 13.94 13.49 12.79V12.09H10.7V14.88Z" fill="#14142B"/>
<path d="M6.50999 12.79C6.50999 13.94 7.44999 14.88 8.59999 14.88H9.29999V12.09H6.50999V12.79Z" fill="#14142B"/>
<path d="M6.50999 10V10.7H9.29999V7.91H8.59999C7.44999 7.91 6.50999 8.85 6.50999 10Z" fill="#14142B"/>
<path d="M18.03 4.82L12.28 0.789999C10.71 -0.310001 8.31 -0.250001 6.8 0.919999L1.79 4.83C0.78 5.61 0 7.21 0 8.47V15.37C0 17.92 2.07 20 4.61 20H15.38C17.92 20 19.99 17.93 19.99 15.38V8.6C20 7.25 19.13 5.59 18.03 4.82ZM14.88 12.79C14.88 14.71 13.31 16.28 11.39 16.28H8.6C6.68 16.28 5.11 14.72 5.11 12.79V10C5.11 8.08 6.68 6.51 8.6 6.51H11.39C13.31 6.51 14.88 8.07 14.88 10V12.79V12.79Z" fill="#14142B"/>
<path d="M11.4 7.91H10.7V10.7H13.49V10C13.49 8.85 12.55 7.91 11.4 7.91Z" fill="#14142B"/>
</svg>

