<svg width="24" height="24" viewBox="0 0 24 24" fill="none" xmlns="http://www.w3.org/2000/svg">
<path d="M19.95 17.7C19.8 17.7 19.5 17.7 19.35 17.55C19.05 17.25 19.05 16.8 19.35 16.5C21.45 14.4 22.5 11.85 22.5 8.99999C22.5 6.14999 21.45 3.59999 19.35 1.64999C19.05 1.34999 19.05 0.899991 19.35 0.599991C19.65 0.299991 20.1 0.299991 20.4 0.599991C22.8 2.84999 24 5.84999 24 8.99999C24 12.15 22.8 15.15 20.55 17.55C20.4 17.7 20.1 17.7 19.95 17.7ZM4.05 17.7C3.9 17.7 3.6 17.7 3.45 17.55C1.2 15.15 0 12.15 0 8.99999C0 5.84999 1.2 2.84999 3.45 0.449991C3.75 0.149991 4.2 0.149991 4.5 0.449991C4.8 0.749991 4.8 1.19999 4.5 1.49999C2.55 3.59999 1.5 6.14999 1.5 8.99999C1.5 11.85 2.55 14.4 4.65 16.35C4.95 16.65 4.95 17.1 4.65 17.4C4.5 17.7 4.2 17.7 4.05 17.7Z" fill="#FC7B39"/>
<path d="M17.85 15.6C17.7 15.6 17.4 15.6 17.25 15.45C16.95 15.15 16.95 14.7 17.25 14.4C18.75 12.9 19.5 10.95 19.5 8.99999C19.5 7.04999 18.75 5.09999 17.25 3.74999C16.95 3.44999 16.95 2.99999 17.25 2.69999C17.55 2.39999 18 2.39999 18.3 2.69999C20.1 4.34999 21 6.59999 21 8.99999C21 11.4 20.1 13.65 18.3 15.3C18.15 15.45 18 15.6 17.85 15.6ZM6.15 15.6C6 15.6 5.7 15.6 5.55 15.45C3.9 13.65 3 11.4 3 8.99999C3 6.59999 3.9 4.34999 5.7 2.69999C6 2.39999 6.45 2.39999 6.75 2.69999C7.05 2.99999 7.05 3.44999 6.75 3.74999C5.25 5.09999 4.5 7.04999 4.5 8.99999C4.5 10.95 5.25 12.9 6.75 14.25C7.05 14.55 7.05 15 6.75 15.3C6.6 15.45 6.3 15.6 6.15 15.6Z" fill="#FC7B39"/>
<path d="M15.75 13.5C15.6 13.5 15.3 13.5 15.15 13.35C14.85 13.05 14.85 12.6 15.15 12.3C16.05 11.4 16.5 10.2 16.5 9.00001C16.5 7.80001 16.05 6.60001 15.15 5.85001C14.85 5.55001 14.85 5.10001 15.15 4.80001C15.45 4.50001 15.9 4.50001 16.2 4.80001C17.4 5.85001 18 7.35001 18 9.00001C18 10.65 17.4 12.15 16.2 13.2C16.05 13.35 15.9 13.5 15.75 13.5ZM8.25 13.5C8.1 13.5 7.8 13.5 7.65 13.35C6.6 12.15 6 10.65 6 9.00001C6 7.35001 6.6 5.85001 7.8 4.80001C8.1 4.50001 8.55 4.50001 8.85 4.80001C9.15 5.10001 9.15 5.55001 8.85 5.85001C7.95 6.60001 7.5 7.80001 7.5 9.00001C7.5 10.2 7.95 11.4 8.85 12.15C9.15 12.45 9.15 12.9 8.85 13.2C8.7 13.35 8.55 13.5 8.25 13.5Z" fill="#FC7B39"/>
<path d="M15 9C15 7.35 13.65 6 12 6C10.35 6 9 7.35 9 9C9 10.35 9.9 11.55 11.25 11.85V23.25C11.25 23.7 11.55 24 12 24C12.45 24 12.75 23.7 12.75 23.25V11.85C14.1 11.55 15 10.35 15 9ZM12 10.5C11.1 10.5 10.5 9.9 10.5 9C10.5 8.1 11.1 7.5 12 7.5C12.9 7.5 13.5 8.1 13.5 9C13.5 9.9 12.9 10.5 12 10.5Z" fill="#14142B"/>
</svg>
